<svg width="187" height="44" viewBox="0 0 187 44" fill="none" xmlns="http://www.w3.org/2000/svg">
<path d="M51.4935 26.6392V15.3636H56.9396V35H51.7109V31.4332H51.5063C51.0631 32.5838 50.3259 33.5085 49.2947 34.2074C48.2719 34.9062 47.0234 35.2557 45.5489 35.2557C44.2364 35.2557 43.0816 34.9574 42.0844 34.3608C41.0873 33.7642 40.3075 32.9162 39.745 31.8168C39.191 30.7173 38.9097 29.4006 38.9012 27.8665V15.3636H44.3472V26.8949C44.3557 28.054 44.6668 28.9702 45.2805 29.6435C45.8941 30.3168 46.7165 30.6534 47.7478 30.6534C48.404 30.6534 49.0177 30.5043 49.5887 30.206C50.1597 29.8991 50.62 29.4474 50.9694 28.8509C51.3273 28.2543 51.5021 27.517 51.4935 26.6392ZM61.2957 35V15.3636H66.5756V18.7898H66.7801C67.1381 17.571 67.7389 16.6506 68.5827 16.0284C69.4264 15.3977 70.398 15.0824 71.4974 15.0824C71.7702 15.0824 72.0642 15.0994 72.3795 15.1335C72.6949 15.1676 72.9719 15.2145 73.2105 15.2741V20.1065C72.9548 20.0298 72.6011 19.9616 72.1494 19.902C71.6977 19.8423 71.2844 19.8125 70.9094 19.8125C70.1082 19.8125 69.3923 19.9872 68.7616 20.3366C68.1395 20.6776 67.6452 21.1548 67.2787 21.7685C66.9207 22.3821 66.7418 23.0895 66.7418 23.8906V35H61.2957ZM76.0262 35V15.3636H81.4722V35H76.0262ZM78.762 12.8324C77.9523 12.8324 77.2577 12.5639 76.6782 12.027C76.1072 11.4815 75.8217 10.8295 75.8217 10.071C75.8217 9.32102 76.1072 8.67756 76.6782 8.14062C77.2577 7.59517 77.9523 7.32244 78.762 7.32244C79.5717 7.32244 80.262 7.59517 80.833 8.14062C81.4126 8.67756 81.7023 9.32102 81.7023 10.071C81.7023 10.8295 81.4126 11.4815 80.833 12.027C80.262 12.5639 79.5717 12.8324 78.762 12.8324ZM94.707 35.3835C92.7212 35.3835 91.0038 34.9616 89.555 34.1179C88.1146 33.2656 87.0024 32.081 86.2183 30.5639C85.4342 29.0384 85.0422 27.2699 85.0422 25.2585C85.0422 23.2301 85.4342 21.4574 86.2183 19.9403C87.0024 18.4148 88.1146 17.2301 89.555 16.3864C91.0038 15.5341 92.7212 15.108 94.707 15.108C96.6927 15.108 98.4058 15.5341 99.8462 16.3864C101.295 17.2301 102.411 18.4148 103.196 19.9403C103.98 21.4574 104.372 23.2301 104.372 25.2585C104.372 27.2699 103.98 29.0384 103.196 30.5639C102.411 32.081 101.295 33.2656 99.8462 34.1179C98.4058 34.9616 96.6927 35.3835 94.707 35.3835ZM94.7325 31.1648C95.6359 31.1648 96.3902 30.9091 96.9953 30.3977C97.6004 29.8778 98.0564 29.1705 98.3632 28.2756C98.6785 27.3807 98.8362 26.3622 98.8362 25.2202C98.8362 24.0781 98.6785 23.0597 98.3632 22.1648C98.0564 21.2699 97.6004 20.5625 96.9953 20.0426C96.3902 19.5227 95.6359 19.2628 94.7325 19.2628C93.8206 19.2628 93.0535 19.5227 92.4314 20.0426C91.8177 20.5625 91.3533 21.2699 91.0379 22.1648C90.7311 23.0597 90.5777 24.0781 90.5777 25.2202C90.5777 26.3622 90.7311 27.3807 91.0379 28.2756C91.3533 29.1705 91.8177 29.8778 92.4314 30.3977C93.0535 30.9091 93.8206 31.1648 94.7325 31.1648ZM112.081 35L104.589 8.81818H110.636L114.97 27.0099H115.187L119.968 8.81818H125.146L129.914 27.0483H130.144L134.478 8.81818H140.525L133.034 35H127.639L122.653 17.8821H122.448L117.475 35H112.081ZM143.386 35V15.3636H148.832V35H143.386ZM146.121 12.8324C145.312 12.8324 144.617 12.5639 144.038 12.027C143.467 11.4815 143.181 10.8295 143.181 10.071C143.181 9.32102 143.467 8.67756 144.038 8.14062C144.617 7.59517 145.312 7.32244 146.121 7.32244C146.931 7.32244 147.621 7.59517 148.192 8.14062C148.772 8.67756 149.062 9.32102 149.062 10.071C149.062 10.8295 148.772 11.4815 148.192 12.027C147.621 12.5639 146.931 12.8324 146.121 12.8324ZM153.194 35V15.3636H158.474V18.7898H158.679C159.036 17.571 159.637 16.6506 160.481 16.0284C161.325 15.3977 162.296 15.0824 163.396 15.0824C163.669 15.0824 163.963 15.0994 164.278 15.1335C164.593 15.1676 164.87 15.2145 165.109 15.2741V20.1065C164.853 20.0298 164.5 19.9616 164.048 19.902C163.596 19.8423 163.183 19.8125 162.808 19.8125C162.007 19.8125 161.291 19.9872 160.66 20.3366C160.038 20.6776 159.544 21.1548 159.177 21.7685C158.819 22.3821 158.64 23.0895 158.64 23.8906V35H153.194ZM175.959 35.3835C173.94 35.3835 172.201 34.9744 170.744 34.1562C169.295 33.3295 168.178 32.1619 167.394 30.6534C166.61 29.1364 166.218 27.3423 166.218 25.2713C166.218 23.2514 166.61 21.4787 167.394 19.9531C168.178 18.4276 169.282 17.2386 170.705 16.3864C172.137 15.5341 173.816 15.108 175.742 15.108C177.038 15.108 178.244 15.3168 179.36 15.7344C180.485 16.1435 181.465 16.7614 182.3 17.5881C183.144 18.4148 183.8 19.4545 184.269 20.7074C184.738 21.9517 184.972 23.4091 184.972 25.0795V26.5753H168.391V23.2003H179.846C179.846 22.4162 179.675 21.7216 179.334 21.1165C178.994 20.5114 178.521 20.0384 177.915 19.6974C177.319 19.348 176.624 19.1733 175.832 19.1733C175.005 19.1733 174.272 19.3651 173.633 19.7486C173.002 20.1236 172.508 20.6307 172.15 21.2699C171.792 21.9006 171.609 22.6037 171.6 23.3793V26.5881C171.6 27.5597 171.779 28.3991 172.137 29.1065C172.503 29.8139 173.019 30.3594 173.684 30.7429C174.349 31.1264 175.137 31.3182 176.049 31.3182C176.654 31.3182 177.208 31.233 177.711 31.0625C178.214 30.892 178.644 30.6364 179.002 30.2955C179.36 29.9545 179.633 29.5369 179.82 29.0426L184.857 29.375C184.601 30.5852 184.077 31.642 183.285 32.5455C182.501 33.4403 181.486 34.1392 180.242 34.642C179.006 35.1364 177.579 35.3835 175.959 35.3835Z" fill="black"/>
<circle cx="18" cy="21.9999" r="16.9706" fill="black"/>
<path d="M27 13C25.22 11.22 22.9521 10.0078 20.4831 9.51665C18.0141 9.02554 15.455 9.2776 13.1292 10.2409C10.8035 11.2043 8.81567 12.8357 7.4171 14.9288C6.01854 17.0219 5.27206 19.4827 5.27206 22C5.27206 24.5174 6.01854 26.9782 7.4171 29.0713C8.81567 31.1644 10.8035 32.7958 13.1292 33.7591C15.455 34.7225 18.0141 34.9745 20.4831 34.4834C22.9521 33.9923 25.22 32.7801 27 31L18 22L27 13Z" fill="white"/>
</svg>
