<svg width="520" height="82" viewBox="0 0 520 82" fill="none" xmlns="http://www.w3.org/2000/svg">
<path d="M100.908 50.2285V28.9587H111.182V66H101.318V59.2718H100.932C100.096 61.4422 98.7058 63.1865 96.7605 64.5048C94.8312 65.8232 92.476 66.4823 89.6946 66.4823C87.2188 66.4823 85.0404 65.9196 83.1594 64.7942C81.2784 63.6688 79.8073 62.0692 78.7462 59.9953C77.7012 57.9213 77.1707 55.4374 77.1546 52.5436V28.9587H87.4278V50.7108C87.4439 52.8973 88.0307 54.6255 89.1882 55.8956C90.3458 57.1657 91.8972 57.8007 93.8425 57.8007C95.0804 57.8007 96.238 57.5194 97.3151 56.9567C98.3923 56.3779 99.2604 55.5259 99.9196 54.4005C100.595 53.2751 100.924 51.8844 100.908 50.2285ZM119.399 66V28.9587H129.359V35.4216H129.744C130.42 33.1226 131.553 31.3863 133.145 30.2127C134.736 29.023 136.569 28.4281 138.643 28.4281C139.157 28.4281 139.712 28.4603 140.307 28.5246C140.902 28.5889 141.424 28.6773 141.874 28.7899V37.9055C141.392 37.7608 140.725 37.6322 139.873 37.5197C139.021 37.4071 138.241 37.3509 137.534 37.3509C136.022 37.3509 134.672 37.6804 133.482 38.3396C132.309 38.9827 131.376 39.883 130.685 41.0405C130.01 42.1981 129.672 43.5324 129.672 45.0437V66H119.399ZM147.186 66V28.9587H157.459V66H147.186ZM152.347 24.1838C150.819 24.1838 149.509 23.6774 148.416 22.6645C147.339 21.6356 146.8 20.4057 146.8 18.9749C146.8 17.5601 147.339 16.3463 148.416 15.3335C149.509 14.3045 150.819 13.7901 152.347 13.7901C153.874 13.7901 155.176 14.3045 156.253 15.3335C157.347 16.3463 157.893 17.5601 157.893 18.9749C157.893 20.4057 157.347 21.6356 156.253 22.6645C155.176 23.6774 153.874 24.1838 152.347 24.1838ZM182.425 66.7235C178.679 66.7235 175.439 65.9277 172.706 64.336C169.989 62.7283 167.891 60.4936 166.412 57.6319C164.933 54.7542 164.193 51.4182 164.193 47.624C164.193 43.7977 164.933 40.4537 166.412 37.592C167.891 34.7142 169.989 32.4795 172.706 30.8879C175.439 29.2802 178.679 28.4764 182.425 28.4764C186.17 28.4764 189.402 29.2802 192.119 30.8879C194.852 32.4795 196.958 34.7142 198.437 37.592C199.916 40.4537 200.656 43.7977 200.656 47.624C200.656 51.4182 199.916 54.7542 198.437 57.6319C196.958 60.4936 194.852 62.7283 192.119 64.336C189.402 65.9277 186.17 66.7235 182.425 66.7235ZM182.473 58.7654C184.177 58.7654 185.6 58.2831 186.741 57.3184C187.883 56.3377 188.743 55.0034 189.322 53.3153C189.916 51.6272 190.214 49.706 190.214 47.5517C190.214 45.3974 189.916 43.4762 189.322 41.7881C188.743 40.1 187.883 38.7656 186.741 37.7849C185.6 36.8042 184.177 36.3139 182.473 36.3139C180.753 36.3139 179.306 36.8042 178.132 37.7849C176.974 38.7656 176.098 40.1 175.503 41.7881C174.925 43.4762 174.635 45.3974 174.635 47.5517C174.635 49.706 174.925 51.6272 175.503 53.3153C176.098 55.0034 176.974 56.3377 178.132 57.3184C179.306 58.2831 180.753 58.7654 182.473 58.7654ZM215.197 66L201.066 16.6116H212.472L220.648 50.9278H221.057L230.077 16.6116H239.843L248.838 51.0002H249.273L257.448 16.6116H268.854L254.723 66H244.546L235.141 33.7094H234.755L225.374 66H215.197ZM274.25 66V28.9587H284.523V66H274.25ZM279.411 24.1838C277.884 24.1838 276.573 23.6774 275.48 22.6645C274.403 21.6356 273.864 20.4057 273.864 18.9749C273.864 17.5601 274.403 16.3463 275.48 15.3335C276.573 14.3045 277.884 13.7901 279.411 13.7901C280.938 13.7901 282.24 14.3045 283.318 15.3335C284.411 16.3463 284.957 17.5601 284.957 18.9749C284.957 20.4057 284.411 21.6356 283.318 22.6645C282.24 23.6774 280.938 24.1838 279.411 24.1838ZM292.753 66V28.9587H302.712V35.4216H303.098C303.773 33.1226 304.907 31.3863 306.499 30.2127C308.09 29.023 309.923 28.4281 311.997 28.4281C312.511 28.4281 313.066 28.4603 313.661 28.5246C314.256 28.5889 314.778 28.6773 315.228 28.7899V37.9055C314.746 37.7608 314.079 37.6322 313.227 37.5197C312.375 37.4071 311.595 37.3509 310.888 37.3509C309.376 37.3509 308.026 37.6804 306.836 38.3396C305.663 38.9827 304.73 39.883 304.039 41.0405C303.363 42.1981 303.026 43.5324 303.026 45.0437V66H292.753ZM335.696 66.7235C331.886 66.7235 328.606 65.9518 325.857 64.4084C323.124 62.8489 321.018 60.6464 319.539 57.8007C318.06 54.939 317.32 51.5548 317.32 47.6481C317.32 43.8379 318.06 40.4939 319.539 37.6161C321.018 34.7383 323.1 32.4956 325.785 30.8879C328.486 29.2802 331.653 28.4764 335.286 28.4764C337.73 28.4764 340.005 28.8703 342.111 29.658C344.233 30.4297 346.082 31.5953 347.658 33.1548C349.249 34.7142 350.487 36.6756 351.371 39.0389C352.256 41.3862 352.698 44.1353 352.698 47.2864V50.1079H321.42V43.7414H343.027C343.027 42.2624 342.706 40.9521 342.063 39.8106C341.42 38.6692 340.527 37.7769 339.386 37.1338C338.261 36.4747 336.95 36.1451 335.455 36.1451C333.896 36.1451 332.513 36.5068 331.307 37.2303C330.118 37.9377 329.185 38.8942 328.51 40.1C327.835 41.2897 327.489 42.6161 327.473 44.0791V50.132C327.473 51.9648 327.811 53.5484 328.486 54.8828C329.177 56.2172 330.15 57.2461 331.404 57.9696C332.658 58.693 334.145 59.0548 335.865 59.0548C337.007 59.0548 338.052 58.894 339 58.5724C339.949 58.2509 340.761 57.7686 341.436 57.1255C342.111 56.4824 342.625 55.6947 342.979 54.7622L352.481 55.3892C351.998 57.6721 351.01 59.6657 349.514 61.3698C348.035 63.0579 346.122 64.3762 343.775 65.3248C341.444 66.2572 338.751 66.7235 335.696 66.7235ZM365.406 66.627C363.815 66.627 362.448 66.0643 361.307 64.9389C360.181 63.7975 359.619 62.4309 359.619 60.8393C359.619 59.2638 360.181 57.9133 361.307 56.7879C362.448 55.6625 363.815 55.0998 365.406 55.0998C366.95 55.0998 368.3 55.6625 369.458 56.7879C370.615 57.9133 371.194 59.2638 371.194 60.8393C371.194 61.9004 370.921 62.873 370.374 63.7573C369.844 64.6254 369.144 65.3248 368.276 65.8553C367.408 66.3698 366.451 66.627 365.406 66.627ZM396.365 66.7235C392.571 66.7235 389.307 65.9196 386.574 64.3119C383.857 62.6881 381.767 60.4374 380.304 57.5596C378.857 54.6818 378.133 51.37 378.133 47.624C378.133 43.8299 378.865 40.5019 380.328 37.6402C381.807 34.7625 383.905 32.5197 386.622 30.912C389.339 29.2883 392.571 28.4764 396.316 28.4764C399.548 28.4764 402.377 29.0632 404.805 30.2368C407.233 31.4104 409.154 33.0583 410.569 35.1805C411.983 37.3026 412.763 39.7946 412.908 42.6563H403.213C402.94 40.8074 402.217 39.3203 401.043 38.1949C399.886 37.0534 398.366 36.4827 396.485 36.4827C394.894 36.4827 393.503 36.9168 392.313 37.7849C391.14 38.637 390.223 39.883 389.564 41.5228C388.905 43.1627 388.575 45.1482 388.575 47.4793C388.575 49.8427 388.897 51.8523 389.54 53.5082C390.199 55.1641 391.124 56.4262 392.313 57.2943C393.503 58.1625 394.894 58.5966 396.485 58.5966C397.659 58.5966 398.712 58.3554 399.644 57.8731C400.593 57.3908 401.373 56.6914 401.984 55.7751C402.611 54.8426 403.021 53.7252 403.213 52.423H412.908C412.747 55.2526 411.975 57.7445 410.593 59.8988C409.226 62.037 407.337 63.709 404.926 64.9148C402.514 66.1206 399.66 66.7235 396.365 66.7235ZM436.222 66.7235C432.476 66.7235 429.236 65.9277 426.503 64.336C423.786 62.7283 421.688 60.4936 420.209 57.6319C418.73 54.7542 417.99 51.4182 417.99 47.624C417.99 43.7977 418.73 40.4537 420.209 37.592C421.688 34.7142 423.786 32.4795 426.503 30.8879C429.236 29.2802 432.476 28.4764 436.222 28.4764C439.967 28.4764 443.199 29.2802 445.916 30.8879C448.649 32.4795 450.755 34.7142 452.234 37.592C453.713 40.4537 454.453 43.7977 454.453 47.624C454.453 51.4182 453.713 54.7542 452.234 57.6319C450.755 60.4936 448.649 62.7283 445.916 64.336C443.199 65.9277 439.967 66.7235 436.222 66.7235ZM436.27 58.7654C437.974 58.7654 439.397 58.2831 440.538 57.3184C441.68 56.3377 442.54 55.0034 443.119 53.3153C443.713 51.6272 444.011 49.706 444.011 47.5517C444.011 45.3974 443.713 43.4762 443.119 41.7881C442.54 40.1 441.68 38.7656 440.538 37.7849C439.397 36.8042 437.974 36.3139 436.27 36.3139C434.55 36.3139 433.103 36.8042 431.929 37.7849C430.771 38.7656 429.895 40.1 429.3 41.7881C428.722 43.4762 428.432 45.3974 428.432 47.5517C428.432 49.706 428.722 51.6272 429.3 53.3153C429.895 55.0034 430.771 56.3377 431.929 57.3184C433.103 58.2831 434.55 58.7654 436.27 58.7654ZM461.133 66V28.9587H470.924V35.494H471.358C472.129 33.3236 473.416 31.6114 475.216 30.3574C477.017 29.1034 479.171 28.4764 481.679 28.4764C484.219 28.4764 486.382 29.1114 488.166 30.3815C489.951 31.6355 491.14 33.3397 491.735 35.494H492.121C492.877 33.3718 494.243 31.6757 496.221 30.4056C498.214 29.1194 500.57 28.4764 503.287 28.4764C506.743 28.4764 509.549 29.5776 511.703 31.7802C513.873 33.9667 514.958 37.0695 514.958 41.0887V66H504.709V43.1144C504.709 41.0566 504.163 39.5132 503.07 38.4843C501.976 37.4554 500.61 36.9409 498.97 36.9409C497.105 36.9409 495.65 37.5357 494.605 38.7254C493.56 39.8991 493.038 41.4505 493.038 43.3797V66H483.078V42.8974C483.078 41.0807 482.555 39.6338 481.51 38.5566C480.481 37.4795 479.123 36.9409 477.435 36.9409C476.293 36.9409 475.264 37.2303 474.348 37.809C473.448 38.3717 472.732 39.1675 472.202 40.1965C471.671 41.2093 471.406 42.399 471.406 43.7656V66H461.133Z" fill="white"/>
<path d="M33.9551 7.5459C52.7075 7.54612 67.9092 22.7476 67.9092 41.5C67.9092 60.2524 52.7075 75.4539 33.9551 75.4541C15.2025 75.4541 0 60.2526 0 41.5C8.2465e-06 22.7474 15.2025 7.5459 33.9551 7.5459ZM38.6387 17.9521C33.9813 17.0257 29.1538 17.5011 24.7666 19.3184C20.3795 21.1356 16.6294 24.2128 13.9912 28.1611C11.3531 32.1094 9.94531 36.7514 9.94531 41.5C9.94531 46.2486 11.3531 50.8906 13.9912 54.8389C16.6294 58.7872 20.3795 61.8644 24.7666 63.6816C29.1538 65.4989 33.9813 65.9743 38.6387 65.0479C43.2959 64.1215 47.5739 61.8352 50.9316 58.4775L33.9551 41.5L50.9316 24.5225C47.5739 21.1648 43.2959 18.8785 38.6387 17.9521Z" fill="white"/>
</svg>
