<svg width="189" height="44" viewBox="0 0 189 44" fill="none" xmlns="http://www.w3.org/2000/svg">
<path d="M53.4935 26.6392V15.3636H58.9396V35H53.7109V31.4332H53.5063C53.0631 32.5838 52.3259 33.5085 51.2947 34.2074C50.2719 34.9062 49.0234 35.2557 47.5489 35.2557C46.2364 35.2557 45.0816 34.9574 44.0844 34.3608C43.0873 33.7642 42.3075 32.9162 41.745 31.8168C41.191 30.7173 40.9097 29.4006 40.9012 27.8665V15.3636H46.3472V26.8949C46.3557 28.054 46.6668 28.9702 47.2805 29.6435C47.8941 30.3168 48.7165 30.6534 49.7478 30.6534C50.404 30.6534 51.0177 30.5043 51.5887 30.206C52.1597 29.8991 52.62 29.4474 52.9694 28.8509C53.3273 28.2543 53.5021 27.517 53.4935 26.6392ZM63.2957 35V15.3636H68.5756V18.7898H68.7801C69.1381 17.571 69.7389 16.6506 70.5827 16.0284C71.4264 15.3977 72.398 15.0824 73.4974 15.0824C73.7702 15.0824 74.0642 15.0994 74.3795 15.1335C74.6949 15.1676 74.9719 15.2145 75.2105 15.2741V20.1065C74.9548 20.0298 74.6011 19.9616 74.1494 19.902C73.6977 19.8423 73.2844 19.8125 72.9094 19.8125C72.1082 19.8125 71.3923 19.9872 70.7616 20.3366C70.1395 20.6776 69.6452 21.1548 69.2787 21.7685C68.9207 22.3821 68.7418 23.0895 68.7418 23.8906V35H63.2957ZM78.0262 35V15.3636H83.4722V35H78.0262ZM80.762 12.8324C79.9523 12.8324 79.2577 12.5639 78.6782 12.027C78.1072 11.4815 77.8217 10.8295 77.8217 10.071C77.8217 9.32102 78.1072 8.67756 78.6782 8.14062C79.2577 7.59517 79.9523 7.32244 80.762 7.32244C81.5717 7.32244 82.262 7.59517 82.833 8.14062C83.4126 8.67756 83.7023 9.32102 83.7023 10.071C83.7023 10.8295 83.4126 11.4815 82.833 12.027C82.262 12.5639 81.5717 12.8324 80.762 12.8324ZM96.707 35.3835C94.7212 35.3835 93.0038 34.9616 91.555 34.1179C90.1146 33.2656 89.0024 32.081 88.2183 30.5639C87.4342 29.0384 87.0422 27.2699 87.0422 25.2585C87.0422 23.2301 87.4342 21.4574 88.2183 19.9403C89.0024 18.4148 90.1146 17.2301 91.555 16.3864C93.0038 15.5341 94.7212 15.108 96.707 15.108C98.6927 15.108 100.406 15.5341 101.846 16.3864C103.295 17.2301 104.411 18.4148 105.196 19.9403C105.98 21.4574 106.372 23.2301 106.372 25.2585C106.372 27.2699 105.98 29.0384 105.196 30.5639C104.411 32.081 103.295 33.2656 101.846 34.1179C100.406 34.9616 98.6927 35.3835 96.707 35.3835ZM96.7325 31.1648C97.6359 31.1648 98.3902 30.9091 98.9953 30.3977C99.6004 29.8778 100.056 29.1705 100.363 28.2756C100.679 27.3807 100.836 26.3622 100.836 25.2202C100.836 24.0781 100.679 23.0597 100.363 22.1648C100.056 21.2699 99.6004 20.5625 98.9953 20.0426C98.3902 19.5227 97.6359 19.2628 96.7325 19.2628C95.8206 19.2628 95.0535 19.5227 94.4314 20.0426C93.8177 20.5625 93.3533 21.2699 93.0379 22.1648C92.7311 23.0597 92.5777 24.0781 92.5777 25.2202C92.5777 26.3622 92.7311 27.3807 93.0379 28.2756C93.3533 29.1705 93.8177 29.8778 94.4314 30.3977C95.0535 30.9091 95.8206 31.1648 96.7325 31.1648ZM114.081 35L106.589 8.81818H112.636L116.97 27.0099H117.187L121.968 8.81818H127.146L131.914 27.0483H132.144L136.478 8.81818H142.525L135.034 35H129.639L124.653 17.8821H124.448L119.475 35H114.081ZM145.386 35V15.3636H150.832V35H145.386ZM148.121 12.8324C147.312 12.8324 146.617 12.5639 146.038 12.027C145.467 11.4815 145.181 10.8295 145.181 10.071C145.181 9.32102 145.467 8.67756 146.038 8.14062C146.617 7.59517 147.312 7.32244 148.121 7.32244C148.931 7.32244 149.621 7.59517 150.192 8.14062C150.772 8.67756 151.062 9.32102 151.062 10.071C151.062 10.8295 150.772 11.4815 150.192 12.027C149.621 12.5639 148.931 12.8324 148.121 12.8324ZM155.194 35V15.3636H160.474V18.7898H160.679C161.036 17.571 161.637 16.6506 162.481 16.0284C163.325 15.3977 164.296 15.0824 165.396 15.0824C165.669 15.0824 165.963 15.0994 166.278 15.1335C166.593 15.1676 166.87 15.2145 167.109 15.2741V20.1065C166.853 20.0298 166.5 19.9616 166.048 19.902C165.596 19.8423 165.183 19.8125 164.808 19.8125C164.007 19.8125 163.291 19.9872 162.66 20.3366C162.038 20.6776 161.544 21.1548 161.177 21.7685C160.819 22.3821 160.64 23.0895 160.64 23.8906V35H155.194ZM177.959 35.3835C175.94 35.3835 174.201 34.9744 172.744 34.1562C171.295 33.3295 170.178 32.1619 169.394 30.6534C168.61 29.1364 168.218 27.3423 168.218 25.2713C168.218 23.2514 168.61 21.4787 169.394 19.9531C170.178 18.4276 171.282 17.2386 172.705 16.3864C174.137 15.5341 175.816 15.108 177.742 15.108C179.038 15.108 180.244 15.3168 181.36 15.7344C182.485 16.1435 183.465 16.7614 184.3 17.5881C185.144 18.4148 185.8 19.4545 186.269 20.7074C186.738 21.9517 186.972 23.4091 186.972 25.0795V26.5753H170.391V23.2003H181.846C181.846 22.4162 181.675 21.7216 181.334 21.1165C180.994 20.5114 180.521 20.0384 179.915 19.6974C179.319 19.348 178.624 19.1733 177.832 19.1733C177.005 19.1733 176.272 19.3651 175.633 19.7486C175.002 20.1236 174.508 20.6307 174.15 21.2699C173.792 21.9006 173.609 22.6037 173.6 23.3793V26.5881C173.6 27.5597 173.779 28.3991 174.137 29.1065C174.503 29.8139 175.019 30.3594 175.684 30.7429C176.349 31.1264 177.137 31.3182 178.049 31.3182C178.654 31.3182 179.208 31.233 179.711 31.0625C180.214 30.892 180.644 30.6364 181.002 30.2955C181.36 29.9545 181.633 29.5369 181.82 29.0426L186.857 29.375C186.601 30.5852 186.077 31.642 185.285 32.5455C184.501 33.4403 183.486 34.1392 182.242 34.642C181.006 35.1364 179.579 35.3835 177.959 35.3835Z" fill="black"/>
<circle cx="18" cy="22" r="18" fill="black"/>
<path d="M27 13C25.22 11.22 22.9521 10.0078 20.4831 9.51665C18.0141 9.02554 15.455 9.2776 13.1292 10.2409C10.8035 11.2043 8.81567 12.8357 7.4171 14.9288C6.01854 17.0219 5.27206 19.4827 5.27206 22C5.27206 24.5174 6.01854 26.9782 7.4171 29.0713C8.81567 31.1644 10.8035 32.7958 13.1292 33.7591C15.455 34.7225 18.0141 34.9745 20.4831 34.4834C22.9521 33.9923 25.22 32.7801 27 31L18 22L27 13Z" fill="white"/>
</svg>
